<?xml version="1.0" encoding="UTF-8"?>
<!DOCTYPE svg PUBLIC "-//W3C//DTD SVG 1.1//EN" "http://www.w3.org/Graphics/SVG/1.1/DTD/svg11.dtd">
<svg xmlns="http://www.w3.org/2000/svg" version="1.1" width="1024px" height="1024px" style="shape-rendering:geometricPrecision; text-rendering:geometricPrecision; image-rendering:optimizeQuality; fill-rule:evenodd; clip-rule:evenodd" xmlns:xlink="http://www.w3.org/1999/xlink">
<g><path style="opacity:1" fill="#000000" d="M -0.5,-0.5 C 340.833,-0.5 682.167,-0.5 1023.5,-0.5C 1023.5,340.833 1023.5,682.167 1023.5,1023.5C 682.167,1023.5 340.833,1023.5 -0.5,1023.5C -0.5,682.167 -0.5,340.833 -0.5,-0.5 Z"/></g>
<g><path style="opacity:1" fill="#f0f0f0" d="M 438.5,337.5 C 440.379,337.393 440.712,337.893 439.5,339C 431.046,342.786 423.713,348.119 417.5,355C 429.271,360.552 441.271,365.552 453.5,370C 457.983,376.581 464.317,380.081 472.5,380.5C 475.467,379.227 478.467,377.894 481.5,376.5C 482.333,395.825 482.833,415.158 483,434.5C 483.798,439.394 485.298,444.061 487.5,448.5C 480.516,450.314 474.683,453.981 470,459.5C 466.635,464.897 463.802,470.563 461.5,476.5C 451.996,481.831 443.496,488.498 436,496.5C 433.757,500.223 432.09,504.223 431,508.5C 429.851,571.83 428.518,635.164 427,698.5C 424.753,676.263 421.086,654.263 416,632.5C 412.769,616.53 405.269,603.03 393.5,592C 399.094,588.311 402.261,583.144 403,576.5C 403.667,551.833 403.667,527.167 403,502.5C 401.26,495.851 398.093,490.017 393.5,485C 399.479,485.356 402.646,482.523 403,476.5C 403.667,469.833 403.667,463.167 403,456.5C 402.167,455.667 401.333,454.833 400.5,454C 396.115,454.087 391.781,453.92 387.5,453.5C 391.639,451.069 395.806,448.736 400,446.5C 404.726,436.242 405.726,425.575 403,414.5C 400.949,409.786 398.115,405.619 394.5,402C 398.104,399.292 400.604,395.792 402,391.5C 403.467,384.223 403.801,376.889 403,369.5C 400.479,366.482 397.312,364.315 393.5,363C 387.849,360.784 382.182,358.784 376.5,357C 398.06,352.978 418.727,346.478 438.5,337.5 Z"/></g>
<g><path style="opacity:1" fill="#020202" d="M 429.5,387.5 C 439.243,392.386 448.077,398.72 456,406.5C 456.667,419.167 456.667,431.833 456,444.5C 448.202,452.638 439.535,459.638 430,465.5C 429.5,439.502 429.333,413.502 429.5,387.5 Z"/></g>
<g><path style="opacity:1" fill="#f0f0f0" d="M 88.5,623.5 C 94.086,614.733 99.9194,606.066 106,597.5C 112.443,584.065 120.11,571.398 129,559.5C 135.931,542.943 137.265,525.943 133,508.5C 128.708,499.538 122.874,491.705 115.5,485C 116.167,484.333 116.833,484.333 117.5,485C 124.88,491.382 132.547,497.382 140.5,503C 145.168,505.585 150.002,507.752 155,509.5C 157.848,508.666 160.182,507 162,504.5C 164.333,501.167 166.667,497.833 169,494.5C 165.755,514.426 165.755,534.426 169,554.5C 175.694,560.246 181.194,566.913 185.5,574.5C 189.251,577.985 193.251,578.318 197.5,575.5C 199.916,572.337 202.082,569.004 204,565.5C 217.084,555.75 228.084,544.084 237,530.5C 236.807,521.377 235.474,512.377 233,503.5C 231.591,500.418 229.758,497.585 227.5,495C 222.211,491.38 217.211,487.38 212.5,483C 208.768,480.867 204.768,479.534 200.5,479C 198.593,475.09 195.927,471.756 192.5,469C 183.952,463.225 174.952,458.225 165.5,454C 155.973,444.993 145.806,436.826 135,429.5C 132.532,430.104 130.532,431.438 129,433.5C 122.231,440.934 116.231,448.934 111,457.5C 114.543,449.39 117.876,441.056 121,432.5C 123.764,419.552 124.098,406.552 122,393.5C 120.985,390.442 119.819,387.442 118.5,384.5C 115.146,381.979 112.312,378.979 110,375.5C 99.0079,354.455 86.3413,334.788 72,316.5C 93.2555,339.091 117.422,357.924 144.5,373C 147.217,375.076 150.217,375.743 153.5,375C 167.049,368.447 179.215,359.947 190,349.5C 190.667,347.5 191.333,345.5 192,343.5C 195.415,343.094 198.082,341.428 200,338.5C 213.789,320.224 218.122,299.891 213,277.5C 202.496,258.505 203.496,257.838 216,275.5C 223.364,289.259 227.697,303.925 229,319.5C 235.181,336.04 245.347,349.54 259.5,360C 269.761,364.249 280.427,365.583 291.5,364C 307.985,360.567 323.651,355.233 338.5,348C 326.5,356.333 314.5,364.667 302.5,373C 292.632,382.537 282.465,391.703 272,400.5C 263.167,413.166 256.167,426.832 251,441.5C 249.767,424.804 248.434,408.137 247,391.5C 245.442,389.641 243.609,388.141 241.5,387C 232.573,382.62 223.74,378.12 215,373.5C 203.206,383.07 190.54,391.403 177,398.5C 176.592,406.242 177.259,413.909 179,421.5C 183.5,426 188,430.5 192.5,435C 197.253,437.458 201.753,440.292 206,443.5C 207.422,441.362 209.255,440.195 211.5,440C 222.53,456.182 237.864,463.848 257.5,463C 265.875,454.42 272.375,444.586 277,433.5C 273.329,452.967 272.662,472.634 275,492.5C 275.85,498.052 277.683,503.219 280.5,508C 277.629,523.388 281.963,536.388 293.5,547C 287.868,548.211 282.534,550.211 277.5,553C 266.007,561.247 254.34,569.247 242.5,577C 222.786,594.373 205.62,613.873 191,635.5C 177.715,661.36 166.382,688.027 157,715.5C 158.523,705.541 160.19,695.541 162,685.5C 164.313,663.116 163.98,640.783 161,618.5C 159.624,610.33 157.624,602.33 155,594.5C 148.961,587.327 141.461,585.493 132.5,589C 124.054,592.054 116.388,596.387 109.5,602C 102.27,609.062 95.2701,616.229 88.5,623.5 Z"/></g>
<g><path style="opacity:1" fill="#f0eff0" d="M 561.5,622.5 C 560.833,619.833 560.167,617.167 559.5,614.5C 560.259,596.693 559.092,579.026 556,561.5C 554.554,555.09 550.721,550.923 544.5,549C 550.714,543.738 553.881,536.905 554,528.5C 554.599,515.148 554.266,501.815 553,488.5C 536.569,497.59 525.236,510.924 519,528.5C 518.333,534.5 518.333,540.5 519,546.5C 520.902,551.4 524.402,554.567 529.5,556C 524.237,556.933 520.404,559.766 518,564.5C 516.36,568.392 515.027,572.392 514,576.5C 512.625,585.808 510.792,594.974 508.5,604C 508.167,604.167 507.833,604.333 507.5,604.5C 506.334,596.837 505.167,589.17 504,581.5C 501.51,573.016 497.343,565.516 491.5,559C 487.584,557.898 483.584,557.231 479.5,557C 488.054,553.368 492.221,546.868 492,537.5C 494.293,526.726 493.96,516.059 491,505.5C 490.25,504.874 489.416,504.374 488.5,504C 490.917,502.337 492.75,500.171 494,497.5C 494.057,468.148 494.057,438.815 494,409.5C 490.34,404.939 490.007,400.272 493,395.5C 493.667,388.5 493.667,381.5 493,374.5C 492.285,369.895 489.785,366.729 485.5,365C 479.581,363.804 473.581,363.138 467.5,363C 472.331,361.39 476.997,359.39 481.5,357C 494.363,346.418 504.196,333.584 511,318.5C 517.058,304.325 522.725,289.992 528,275.5C 525.603,292.163 522.936,308.829 520,325.5C 519.189,336.88 519.355,348.213 520.5,359.5C 521,359.833 521.5,360.167 522,360.5C 523.963,359.375 525.796,358.041 527.5,356.5C 527.833,356.833 528.167,357.167 528.5,357.5C 522.665,365.13 519.499,373.797 519,383.5C 519.101,393.819 519.434,404.152 520,414.5C 524.033,410.132 528.366,406.132 533,402.5C 535.202,398.394 536.702,394.06 537.5,389.5C 544.009,388.324 549.176,384.991 553,379.5C 556.252,374.666 559.252,369.666 562,364.5C 560.545,377.776 563.212,390.11 570,401.5C 574.084,409.047 580.251,411.547 588.5,409C 582.384,415.936 579.55,424.103 580,433.5C 579.333,443.167 579.333,452.833 580,462.5C 581.067,464.283 582.567,464.783 584.5,464C 591.617,459.217 598.45,454.051 605,448.5C 603.578,433.471 600.244,418.804 595,404.5C 579.948,377.73 565.948,350.396 553,322.5C 549.368,317.866 545.368,313.533 541,309.5C 540.333,308.833 540.333,308.167 541,307.5C 566.817,333.44 597.983,344.273 634.5,340C 644.754,335.414 651.92,327.914 656,317.5C 656.667,314.5 656.667,311.5 656,308.5C 650.38,303.55 644.213,299.384 637.5,296C 636.304,295.346 636.304,294.846 637.5,294.5C 660.072,305.452 681.739,317.952 702.5,332C 710.703,339.872 719.203,347.372 728,354.5C 730.479,360.125 733.479,365.458 737,370.5C 743.51,365.991 750.676,362.824 758.5,361C 754.412,359.248 751.246,356.415 749,352.5C 746.61,347.997 744.61,343.331 743,338.5C 743.539,325.828 744.539,313.162 746,300.5C 746.652,310.678 746.486,320.845 745.5,331C 744.958,342.081 749.124,350.914 758,357.5C 757.581,354.545 756.914,351.545 756,348.5C 753.517,338.273 756.351,330.106 764.5,324C 773.421,322.892 779.254,326.726 782,335.5C 782.667,340.167 782.667,344.833 782,349.5C 781.484,352.034 780.317,354.2 778.5,356C 786.128,353.38 791.628,348.213 795,340.5C 797.58,331.648 798.246,322.648 797,313.5C 800.143,323.067 800.143,332.734 797,342.5C 792.686,351.481 785.853,357.648 776.5,361C 788.681,361.847 796.848,368.014 801,379.5C 802.199,384.812 802.866,390.146 803,395.5C 801.309,388.087 798.642,381.087 795,374.5C 789.4,367.948 782.567,364.615 774.5,364.5C 786.882,373.805 791.716,386.138 789,401.5C 788.891,406.056 787.891,410.389 786,414.5C 785.904,409.126 786.404,403.793 787.5,398.5C 787.643,386.626 783.31,376.793 774.5,369C 772.945,367.711 771.279,367.044 769.5,367C 771.456,370.595 771.956,374.428 771,378.5C 770.439,374.905 769.272,371.572 767.5,368.5C 765.905,372.117 764.405,375.783 763,379.5C 762.256,376.129 762.756,372.963 764.5,370C 757.26,371.063 752.594,375.229 750.5,382.5C 753.457,390.258 757.791,397.091 763.5,403C 765.901,403.795 768.068,404.962 770,406.5C 770.777,415.611 773.111,424.278 777,432.5C 778.413,434.414 780.247,435.747 782.5,436.5C 783.228,439.212 784.061,441.879 785,444.5C 787.632,447.192 789.966,446.859 792,443.5C 794.917,439.334 797.584,435.001 800,430.5C 804.921,426.913 809.254,422.579 813,417.5C 819.396,408.099 825.396,398.432 831,388.5C 833.144,387.354 834.977,385.854 836.5,384C 837.649,382.27 837.649,380.604 836.5,379C 843.081,371.338 847.081,362.504 848.5,352.5C 847.767,348.534 846.1,345.034 843.5,342C 854.169,341.663 863.503,337.996 871.5,331C 880.981,324.02 889.314,315.853 896.5,306.5C 911.987,296.189 926.154,284.189 939,270.5C 931.319,282.815 923.319,295.148 915,307.5C 911,312.167 907,316.833 903,321.5C 899.388,331.391 894.721,340.724 889,349.5C 886.094,356.885 883.594,364.385 881.5,372C 882.716,379.306 884.882,386.139 888,392.5C 880.268,387.926 873.268,388.926 867,395.5C 852.06,415.112 838.726,435.778 827,457.5C 822.642,461.196 818.975,465.53 816,470.5C 812.596,474.503 811.929,478.836 814,483.5C 818.246,488.991 822.246,494.658 826,500.5C 828.371,503.206 831.037,505.539 834,507.5C 836.229,515.959 839.563,523.959 844,531.5C 848.92,539.672 853.587,548.005 858,556.5C 859.763,559.02 861.763,561.353 864,563.5C 867.013,577.861 873.013,590.861 882,602.5C 890.682,619.864 899.349,637.198 908,654.5C 914.119,669.405 920.785,684.071 928,698.5C 928.667,699.5 928.667,700.5 928,701.5C 908.565,670.749 886.232,642.416 861,616.5C 851.13,606.299 841.63,595.799 832.5,585C 827.923,581.46 823.09,578.294 818,575.5C 819.159,572.258 820.492,568.925 822,565.5C 822.701,562.072 822.368,558.738 821,555.5C 815.333,544.833 809.667,534.167 804,523.5C 799.492,519.82 796.492,515.153 795,509.5C 794.261,508.426 793.261,507.759 792,507.5C 789.46,509.534 787.127,511.868 785,514.5C 775.751,527.995 766.751,541.662 758,555.5C 757.177,559.738 757.844,563.738 760,567.5C 765.149,570.331 770.315,573.164 775.5,576C 768.641,574.611 761.641,574.278 754.5,575C 747.973,577.513 741.807,580.68 736,584.5C 706.137,603.863 677.804,626.863 651,653.5C 639.898,666.599 629.565,680.266 620,694.5C 620.799,690.559 622.466,686.893 625,683.5C 632.973,672.027 641.14,660.694 649.5,649.5C 644.812,640.315 638.479,632.481 630.5,626C 624.693,623.682 618.693,623.016 612.5,624C 605.344,627.075 598.677,630.908 592.5,635.5C 598.451,636.983 604.118,639.149 609.5,642C 603.291,640.366 596.958,638.866 590.5,637.5C 588.082,638.457 585.916,639.791 584,641.5C 583.626,643.898 583.626,646.231 584,648.5C 582.748,646.999 581.748,645.332 581,643.5C 569.696,650.237 559.196,658.071 549.5,667C 548.833,667.667 548.167,667.667 547.5,667C 563.368,650.467 578.868,633.634 594,616.5C 598.84,608.179 600.84,599.179 600,589.5C 600.293,594.39 602.126,598.557 605.5,602C 611.693,602.419 617.359,600.753 622.5,597C 631.68,589.747 641.68,584.08 652.5,580C 658.879,575.091 663.712,568.924 667,561.5C 667.833,549.486 667.666,537.486 666.5,525.5C 653.917,536.088 643.917,548.754 636.5,563.5C 631.223,544.277 623.723,525.943 614,508.5C 611.66,504.994 608.826,501.994 605.5,499.5C 611.897,495.443 614.23,489.61 612.5,482C 612.411,475.799 611.911,469.632 611,463.5C 610.303,459.072 608.637,455.072 606,451.5C 597.667,457.167 589.333,462.833 581,468.5C 580.333,473.167 580.333,477.833 581,482.5C 581.637,484.303 582.803,485.636 584.5,486.5C 581.505,490.652 580.005,495.319 580,500.5C 579.333,513.167 579.333,525.833 580,538.5C 581.068,543.235 583.901,546.402 588.5,548C 584.76,549.29 581.593,551.457 579,554.5C 566.885,575.492 561.052,598.158 561.5,622.5 Z"/></g>
<g><path style="opacity:1" fill="#030303" d="M 718.5,510.5 C 720.017,510.511 721.184,511.177 722,512.5C 725.333,517.833 728.667,523.167 732,528.5C 731.564,532.52 731.731,536.52 732.5,540.5C 723.897,553.612 715.064,566.612 706,579.5C 703.119,581.028 700.786,580.362 699,577.5C 692.866,566.667 693.033,556 699.5,545.5C 688.349,533.444 690.682,524.944 706.5,520C 710.387,516.573 714.387,513.406 718.5,510.5 Z"/></g>
<g><path style="opacity:1" fill="#030303" d="M 733.5,467.5 C 741.104,467.055 748.438,468.221 755.5,471C 756.899,472.062 757.899,473.395 758.5,475C 757.021,481.74 758.354,487.907 762.5,493.5C 756.085,502.662 749.918,511.995 744,521.5C 741.629,524.206 738.963,526.539 736,528.5C 728.141,521.278 723.307,512.445 721.5,502C 723.292,492.413 725.459,482.913 728,473.5C 729.36,470.977 731.193,468.977 733.5,467.5 Z"/></g>
<g><path style="opacity:1" fill="#090909" d="M 765.5,465.5 C 768.282,468.332 769.615,471.832 769.5,476C 769.897,481.95 767.897,486.783 763.5,490.5C 758.55,481.823 759.216,473.49 765.5,465.5 Z"/></g>
<g><path style="opacity:1" fill="#050505" d="M 523.5,463.5 C 533.882,463.554 543.715,465.887 553,470.5C 553.829,475.533 553.662,480.533 552.5,485.5C 546.066,489.764 540.066,494.598 534.5,500C 529.214,506.074 524.048,512.241 519,518.5C 518.109,501.798 518.443,485.131 520,468.5C 520.997,466.677 522.164,465.01 523.5,463.5 Z"/></g>
<g><path style="opacity:1" fill="#030303" d="M 702.5,461.5 C 703.601,460.402 704.934,460.235 706.5,461C 711.621,464.453 716.454,468.286 721,472.5C 722.552,474.768 723.385,477.268 723.5,480C 721.484,488.746 719.984,497.579 719,506.5C 714.533,509.965 710.367,513.798 706.5,518C 702.501,520.209 698.334,522.042 694,523.5C 693.282,507.447 693.949,491.447 696,475.5C 697.343,470.137 700.176,465.804 704.5,462.5C 704.043,461.702 703.376,461.369 702.5,461.5 Z"/></g>
<g><path style="opacity:1" fill="#040404" d="M 737.5,446.5 C 745.371,445.182 752.205,447.182 758,452.5C 760.305,456.304 762.805,459.97 765.5,463.5C 763.273,465.607 761.273,467.94 759.5,470.5C 750.498,466.43 741.165,465.096 731.5,466.5C 730.457,458.96 732.457,452.293 737.5,446.5 Z"/></g>
<g><path style="opacity:1" fill="#050505" d="M 711.5,438.5 C 719.267,438.135 726.1,440.469 732,445.5C 730.788,456.021 728.455,466.354 725,476.5C 719.877,466.867 712.044,460.867 701.5,458.5C 702.487,453.704 703.987,449.037 706,444.5C 707.36,441.977 709.193,439.977 711.5,438.5 Z"/></g>
<g><path style="opacity:1" fill="#0d0d0d" d="M 695.5,452.5 C 694.427,451.749 694.26,450.749 695,449.5C 696.984,445.531 698.984,441.531 701,437.5C 703.48,435.91 705.313,436.41 706.5,439C 703.929,445.55 701.262,452.05 698.5,458.5C 696.022,457.278 695.022,455.278 695.5,452.5 Z"/></g>
<g><path style="opacity:1" fill="#edecec" d="M 695.5,452.5 C 696.148,449.677 697.814,448.177 700.5,448C 698.963,449.707 697.296,451.207 695.5,452.5 Z"/></g>
<g><path style="opacity:1" fill="#030303" d="M 631.5,435.5 C 641.319,436.871 650.986,439.037 660.5,442C 664.062,442.739 667.228,444.239 670,446.5C 670.464,452.529 670.131,458.529 669,464.5C 668.869,467.371 667.703,469.705 665.5,471.5C 666.609,473.385 667.443,475.385 668,477.5C 668.667,485.167 668.667,492.833 668,500.5C 662.04,508.128 655.707,515.462 649,522.5C 646.333,517.167 643.667,511.833 641,506.5C 639.81,489.844 638.81,473.178 638,456.5C 635.058,449.732 632.892,442.732 631.5,435.5 Z"/></g>
<g><path style="opacity:1" fill="#080808" d="M 742.5,428.5 C 743.496,428.414 744.329,428.748 745,429.5C 748.674,434.844 751.84,440.51 754.5,446.5C 754.167,446.833 753.833,447.167 753.5,447.5C 749.822,445.663 745.989,444.33 742,443.5C 739.272,443.557 736.939,444.557 735,446.5C 736.622,440.242 739.122,434.242 742.5,428.5 Z"/></g>
<g><path style="opacity:1" fill="#080807" d="M 731.5,406.5 C 732.496,406.414 733.329,406.748 734,407.5C 737.294,413.253 740.46,419.087 743.5,425C 739.095,430.974 735.595,437.474 733,444.5C 725.816,437.998 717.65,435.831 708.5,438C 710.461,434.579 712.294,431.079 714,427.5C 722.464,421.806 730.464,422.473 738,429.5C 738.507,428.004 738.007,426.837 736.5,426C 730.132,422.666 723.465,421.666 716.5,423C 719.167,419.667 721.833,416.333 724.5,413C 726.087,412.138 727.754,411.471 729.5,411C 728.833,410.667 728.167,410.333 727.5,410C 729.093,409.051 730.426,407.885 731.5,406.5 Z"/></g>
<g><path style="opacity:1" fill="#030303" d="M 543.5,420.5 C 549.204,422.336 552.371,426.336 553,432.5C 554.388,443.804 554.721,455.137 554,466.5C 547.127,466.079 540.294,464.579 533.5,462C 528.913,461.201 524.413,461.368 520,462.5C 519.333,456.5 519.333,450.5 520,444.5C 528.036,436.632 535.869,428.632 543.5,420.5 Z"/></g>
<g><path style="opacity:1" fill="#060606" d="M 706.5,417.5 C 709.629,418.795 711.962,420.962 713.5,424C 711.723,428.387 709.557,432.554 707,436.5C 705.104,435.32 703.604,433.82 702.5,432C 703.15,426.883 704.483,422.05 706.5,417.5 Z"/></g>
<g><path style="opacity:1" fill="#060605" d="M 688.5,401.5 C 689.058,402.79 690.058,403.623 691.5,404C 686.405,408.544 680.405,410.877 673.5,411C 676.261,413.852 678.261,417.185 679.5,421C 676.875,428.886 673.875,436.553 670.5,444C 659.102,439.098 647.102,435.764 634.5,434C 646.179,426.828 657.512,419.162 668.5,411C 675.269,407.918 681.936,404.751 688.5,401.5 Z"/></g>
<g><path style="opacity:1" fill="#060606" d="M 712.5,400.5 C 717.248,402.882 721.248,406.216 724.5,410.5C 720.762,414.069 717.596,418.069 715,422.5C 712.167,419.667 709.333,416.833 706.5,414C 708.579,409.49 710.579,404.99 712.5,400.5 Z"/></g>
<g><path style="opacity:1" fill="#0d0d0d" d="M 688.5,401.5 C 691.275,399.446 694.275,397.946 697.5,397C 695.641,398.558 694.141,400.391 693,402.5C 691.644,401.62 690.144,401.286 688.5,401.5 Z"/></g>
<g><path style="opacity:1" fill="#080808" d="M 718.5,384.5 C 720.193,385.475 721.693,386.808 723,388.5C 725.915,393.998 729.081,399.332 732.5,404.5C 730.234,405.432 728.234,406.766 726.5,408.5C 722.143,405.136 717.809,401.802 713.5,398.5C 715.174,393.81 716.841,389.143 718.5,384.5 Z"/></g>
<g><path style="opacity:1" fill="#222222" d="M 747.5,382.5 C 749.175,384.179 750.008,386.179 750,388.5C 748.337,386.842 747.504,384.842 747.5,382.5 Z"/></g>
<g><path style="opacity:1" fill="#050505" d="M 618.5,382.5 C 623.214,382.173 627.88,382.507 632.5,383.5C 635.185,394.257 634.685,404.924 631,415.5C 627.945,418.482 625.945,417.816 625,413.5C 623.45,405.965 623.284,398.465 624.5,391C 619.103,390.773 613.769,390.106 608.5,389C 605.193,388.347 602.527,386.681 600.5,384C 606.681,383.828 612.681,383.328 618.5,382.5 Z"/></g>
<g><path style="opacity:1" fill="#040404" d="M 661.5,383.5 C 665.228,387.738 668.394,392.405 671,397.5C 671.535,400.561 671.868,403.561 672,406.5C 658.875,416.286 645.208,425.286 631,433.5C 630.333,429.167 630.333,424.833 631,420.5C 636.918,408.075 637.752,395.408 633.5,382.5C 641.448,381.004 649.448,380.504 657.5,381C 658.471,382.481 659.804,383.315 661.5,383.5 Z"/></g>
<g><path style="opacity:1" fill="#050505" d="M 661.5,383.5 C 660.859,382.518 660.193,381.518 659.5,380.5C 675.709,374.703 686.376,380.036 691.5,396.5C 685.879,399.894 680.046,402.894 674,405.5C 673.666,395.816 669.499,388.482 661.5,383.5 Z"/></g>
<g><path style="opacity:1" fill="#010000" d="M 711.5,378.5 C 712.601,377.402 713.934,377.235 715.5,378C 714.436,379.511 713.103,379.677 711.5,378.5 Z"/></g>
<g><path style="opacity:1" fill="#0a0a0a" d="M 707.5,378.5 C 708.386,377.224 709.386,377.224 710.5,378.5C 709.575,379.562 708.575,379.562 707.5,378.5 Z"/></g>
<g><path style="opacity:1" fill="#070707" d="M 695.5,379.5 C 696.871,378.213 698.705,377.547 701,377.5C 702.833,377.833 704.667,378.167 706.5,378.5C 707.364,380.197 708.697,381.363 710.5,382C 706.689,389.316 700.856,394.149 693,396.5C 691.584,388.743 687.417,382.91 680.5,379C 685.552,378.274 690.552,378.441 695.5,379.5 Z"/></g>
<g><path style="opacity:1" fill="#e9e9e8" d="M 695.5,379.5 C 699.319,381.155 701.986,383.988 703.5,388C 702.551,388.617 701.718,388.451 701,387.5C 699.757,384.424 697.923,381.757 695.5,379.5 Z"/></g>
<g><path style="opacity:1" fill="#0a0b0b" d="M 757.5,364.5 C 758.675,364.281 759.675,364.614 760.5,365.5C 755.689,368.477 751.689,372.311 748.5,377C 747.391,377.638 746.225,378.138 745,378.5C 743.037,377.375 741.204,376.041 739.5,374.5C 740.648,372.851 741.981,371.351 743.5,370C 748.102,367.649 752.768,365.816 757.5,364.5 Z"/></g>
<g><path style="opacity:1" fill="#060606" d="M 705.5,364.5 C 708.583,367.763 711.583,371.263 714.5,375C 710.179,375.499 705.846,375.666 701.5,375.5C 702.548,371.736 703.881,368.069 705.5,364.5 Z"/></g>
<g><path style="opacity:1" fill="#080808" d="M 692.5,363.5 C 696.048,364.759 699.715,365.593 703.5,366C 700.845,368.629 699.845,371.629 700.5,375C 697.854,375.497 695.187,375.664 692.5,375.5C 692.5,371.5 692.5,367.5 692.5,363.5 Z"/></g>
<g><path style="opacity:1" fill="#060707" d="M 681.5,360.5 C 684.607,361.688 687.773,362.688 691,363.5C 691.793,367.423 691.626,371.256 690.5,375C 686.854,376.453 683.188,376.62 679.5,375.5C 681.319,370.699 681.986,365.699 681.5,360.5 Z"/></g>
<g><path style="opacity:1" fill="#040404" d="M 666.5,357.5 C 670.792,358.058 674.959,359.058 679,360.5C 680.01,365.558 679.51,370.391 677.5,375C 672.022,377.181 666.356,377.848 660.5,377C 663.217,370.73 665.217,364.23 666.5,357.5 Z"/></g>
<g><path style="opacity:1" fill="#0c0c0c" d="M 698.5,355.5 C 702.089,357.425 704.089,360.425 704.5,364.5C 700.648,364.13 696.981,363.13 693.5,361.5C 694.497,358.845 696.164,356.845 698.5,355.5 Z"/></g>
<g><path style="opacity:1" fill="#040404" d="M 640.5,352.5 C 648.479,353.596 656.313,355.262 664,357.5C 664.033,362.666 663.033,367.666 661,372.5C 660.215,374.286 659.049,375.786 657.5,377C 649.501,378.297 641.501,378.963 633.5,379C 638.543,370.939 640.876,362.106 640.5,352.5 Z"/></g>
<g><path style="opacity:1" fill="#060606" d="M 690.5,346.5 C 693.224,348.717 695.891,351.217 698.5,354C 695.302,356.035 692.635,358.535 690.5,361.5C 687.275,360.816 684.275,359.649 681.5,358C 684.629,354.227 687.629,350.394 690.5,346.5 Z"/></g>
<g><path style="opacity:1" fill="#030302" d="M 619.5,346.5 C 625.563,348.557 631.73,350.224 638,351.5C 639.193,361.201 637.193,370.201 632,378.5C 621.854,379.894 611.687,380.727 601.5,381C 610.541,371.085 616.541,359.585 619.5,346.5 Z"/></g>
<g><path style="opacity:1" fill="#090909" d="M 637.5,340.5 C 638.043,340.56 638.376,340.893 638.5,341.5C 637,343.833 635.5,346.167 634,348.5C 628.884,346.928 623.718,345.428 618.5,344C 622.833,343.667 627.167,343.333 631.5,343C 633.723,342.434 635.723,341.6 637.5,340.5 Z"/></g>
<g><path style="opacity:1" fill="#030303" d="M 580.5,336.5 C 592.707,339.968 605.04,342.968 617.5,345.5C 617.046,352.695 614.88,359.361 611,365.5C 607.064,371.053 602.897,376.387 598.5,381.5C 590.728,375.232 584.228,367.899 579,359.5C 578.679,351.781 579.179,344.115 580.5,336.5 Z"/></g>
<g><path style="opacity:1" fill="#080808" d="M 674.5,335.5 C 678.086,336.626 681.419,338.293 684.5,340.5C 685.478,340.023 686.311,339.357 687,338.5C 688.292,340.249 689.458,342.082 690.5,344C 686.388,348.391 682.888,353.224 680,358.5C 675.637,357.14 671.137,356.306 666.5,356C 670.129,349.571 672.795,342.738 674.5,335.5 Z"/></g>
<g><path style="opacity:1" fill="#030303" d="M 682.5,330.5 C 683.933,332.519 685.267,334.686 686.5,337C 679.605,337.653 678.272,335.486 682.5,330.5 Z"/></g>
<g><path style="opacity:1" fill="#050505" d="M 653.5,325.5 C 661.005,327.252 667.672,330.586 673.5,335.5C 671.205,342.216 668.538,348.716 665.5,355C 656.308,353.226 647.141,351.059 638,348.5C 637.582,346.212 638.249,344.212 640,342.5C 645.118,337.227 649.618,331.561 653.5,325.5 Z"/></g>
<g><path style="opacity:1" fill="#080808" d="M 554.5,321.5 C 561.428,327.553 569.262,332.22 578,335.5C 578.766,341.709 577.933,347.709 575.5,353.5C 567.498,343.497 560.498,332.831 554.5,321.5 Z"/></g>
<g><path style="opacity:1" fill="#070707" d="M 658.5,311.5 C 666.697,314.863 673.864,319.863 680,326.5C 680.631,329.584 679.798,332.25 677.5,334.5C 670.51,330.002 663.176,326.002 655.5,322.5C 656.97,318.952 657.97,315.285 658.5,311.5 Z"/></g>
<g><path style="opacity:1" fill="#f0eff0" d="M 351.5,367.5 C 353.288,367.215 354.955,367.548 356.5,368.5C 357.104,371.898 357.937,375.231 359,378.5C 360.743,380.871 363.077,382.205 366,382.5C 369.812,381.854 373.646,381.354 377.5,381C 381.833,378 385.5,374.333 388.5,370C 389.167,369.333 389.833,369.333 390.5,370C 382.407,391.384 378.241,413.55 378,436.5C 370.582,426.411 362.415,416.911 353.5,408C 350.722,406.562 348.056,406.562 345.5,408C 341.667,411.167 337.833,414.333 334,417.5C 333.5,431.496 333.333,445.496 333.5,459.5C 340.348,458.748 347.014,457.248 353.5,455C 357.268,451.572 359.768,447.405 361,442.5C 362.046,443.772 362.546,445.272 362.5,447C 361.708,451.528 361.208,456.028 361,460.5C 361.785,462.286 362.951,463.786 364.5,465C 368.533,466.349 371.866,468.682 374.5,472C 369.103,472.227 363.769,472.894 358.5,474C 350.33,477.424 341.997,480.257 333.5,482.5C 333.24,500.19 333.74,517.857 335,535.5C 336.525,538.087 338.692,538.92 341.5,538C 348.584,530.912 356.251,524.578 364.5,519C 369.138,514.89 371.471,509.724 371.5,503.5C 370.802,498.401 369.969,493.401 369,488.5C 377.833,504.833 386.667,521.167 395.5,537.5C 383.703,536.151 374.203,540.151 367,549.5C 364,553.5 361,557.5 358,561.5C 356.123,566.742 354.456,572.075 353,577.5C 352.325,590.914 352.658,604.247 354,617.5C 346.612,590.808 332.112,568.975 310.5,552C 306.835,550.722 303.168,549.556 299.5,548.5C 300.757,544.559 301.924,540.559 303,536.5C 303.667,524.5 303.667,512.5 303,500.5C 301.248,490.248 295.414,483.582 285.5,480.5C 294.555,474.424 300.722,466.091 304,455.5C 304,441.505 303.667,427.505 303,413.5C 298.639,404.972 292.139,398.639 283.5,394.5C 292.765,394.934 302.099,394.101 311.5,392C 320.167,389 328.833,386 337.5,383C 345.343,380.604 350.009,375.437 351.5,367.5 Z"/></g>
<g><path style="opacity:1" fill="#090909" d="M 696.5,582.5 C 698.924,582.192 701.257,582.526 703.5,583.5C 698.745,590.676 693.745,597.676 688.5,604.5C 688.028,596.849 683.695,592.349 675.5,591C 682.372,587.554 689.372,584.721 696.5,582.5 Z"/></g>
<g><path style="opacity:1" fill="#080808" d="M 672.5,593.5 C 683.546,593.385 687.713,598.718 685,609.5C 678.647,616.352 672.481,623.352 666.5,630.5C 665.741,627.843 665.074,625.177 664.5,622.5C 671.686,613.96 674.353,604.293 672.5,593.5 Z"/></g>
<g><path style="opacity:1" fill="#060605" d="M 668.5,594.5 C 669.867,597.268 670.867,600.268 671.5,603.5C 670.088,609.657 667.588,615.324 664,620.5C 659.261,614.376 653.427,609.542 646.5,606C 654.084,602.377 661.417,598.544 668.5,594.5 Z"/></g>
<g><path style="opacity:1" fill="#050504" d="M 642.5,608.5 C 649.233,609.029 654.733,612.029 659,617.5C 659.85,619.01 660.683,620.51 661.5,622C 655.696,628.776 651.863,636.609 650,645.5C 645.594,638.424 640.428,631.924 634.5,626C 629.436,623.489 624.103,621.822 618.5,621C 626.75,617.044 634.75,612.877 642.5,608.5 Z"/></g>
<g><path style="opacity:1" fill="#797a79" d="M 559.5,614.5 C 560.167,617.167 560.833,619.833 561.5,622.5C 561.628,624.655 561.128,626.655 560,628.5C 559.501,623.845 559.334,619.179 559.5,614.5 Z"/></g>
<g><path style="opacity:1" fill="#8c8b8a" d="M 88.5,623.5 C 87.9688,625.544 86.8022,627.211 85,628.5C 85.0768,626.228 86.2435,624.562 88.5,623.5 Z"/></g>
<g><path style="opacity:1" fill="#0a0a0a" d="M 661.5,625.5 C 662.586,625.62 663.253,626.287 663.5,627.5C 664.331,629.473 664.498,631.473 664,633.5C 660,638.167 656,642.833 652,647.5C 653.225,639.377 656.392,632.044 661.5,625.5 Z"/></g>
</svg>
