<svg xmlns="http://www.w3.org/2000/svg" viewBox="0 0 400 300" id="punk-accessories">
  <defs>
    <linearGradient id="chainMetal" x1="0%" y1="0%" x2="100%" y2="100%">
      <stop offset="0%" style="stop-color:#999;stop-opacity:1" />
      <stop offset="50%" style="stop-color:#666;stop-opacity:1" />
      <stop offset="100%" style="stop-color:#333;stop-opacity:1" />
    </linearGradient>
    
    <filter id="chainGlow" x="-50%" y="-50%" width="200%" height="200%">
      <feGaussianBlur stdDeviation="2" result="coloredBlur"/>
      <feMerge>
        <feMergeNode in="coloredBlur"/>
        <feMergeNode in="SourceGraphic"/>
      </feMerge>
    </filter>
  </defs>
  
  <!-- Spiked collar -->
  <ellipse cx="200" cy="80" rx="120" ry="25" fill="#000" stroke="#333" stroke-width="2"/>
  <g fill="#777" filter="url(#chainGlow)">
    <polygon points="120,75 115,65 125,75" stroke="#333" stroke-width="1"/>
    <polygon points="140,70 135,60 145,70" stroke="#333" stroke-width="1"/>
    <polygon points="160,68 155,58 165,68" stroke="#333" stroke-width="1"/>
    <polygon points="180,65 175,55 185,65" stroke="#333" stroke-width="1"/>
    <polygon points="200,63 195,53 205,63" stroke="#333" stroke-width="1"/>
    <polygon points="220,65 215,55 225,65" stroke="#333" stroke-width="1"/>
    <polygon points="240,68 235,58 245,68" stroke="#333" stroke-width="1"/>
    <polygon points="260,70 255,60 265,70" stroke="#333" stroke-width="1"/>
    <polygon points="280,75 275,65 285,75" stroke="#333" stroke-width="1"/>
  </g>
  
  <!-- Studded bracelet -->
  <ellipse cx="100" cy="150" rx="40" ry="15" fill="#1a1a1a" stroke="#333" stroke-width="2"/>
  <g fill="#888">
    <circle cx="80" cy="150" r="3"/>
    <circle cx="90" cy="148" r="3"/>
    <circle cx="100" cy="147" r="3"/>
    <circle cx="110" cy="148" r="3"/>
    <circle cx="120" cy="150" r="3"/>
  </g>
  
  <!-- Chain wallet -->
  <rect x="250" y="180" width="80" height="50" fill="#000" stroke="#333" stroke-width="2" rx="5"/>
  <g stroke="#666" stroke-width="2" fill="none" filter="url(#chainGlow)">
    <path d="M250 205 Q230 200 210 205 Q190 210 170 205 Q150 200 130 205"/>
    <circle cx="245" cy="203" r="4" fill="url(#chainMetal)"/>
    <circle cx="235" cy="201" r="4" fill="url(#chainMetal)"/>
    <circle cx="225" cy="203" r="4" fill="url(#chainMetal)"/>
    <circle cx="215" cy="205" r="4" fill="url(#chainMetal)"/>
    <circle cx="205" cy="207" r="4" fill="url(#chainMetal)"/>
    <circle cx="195" cy="209" r="4" fill="url(#chainMetal)"/>
    <circle cx="185" cy="207" r="4" fill="url(#chainMetal)"/>
    <circle cx="175" cy="205" r="4" fill="url(#chainMetal)"/>
    <circle cx="165" cy="203" r="4" fill="url(#chainMetal)"/>
    <circle cx="155" cy="201" r="4" fill="url(#chainMetal)"/>
    <circle cx="145" cy="203" r="4" fill="url(#chainMetal)"/>
    <circle cx="135" cy="205" r="4" fill="url(#chainMetal)"/>
  </g>
  
  <!-- Safety pins -->
  <g stroke="#888" stroke-width="2" filter="url(#chainGlow)">
    <path d="M80 250 L120 250" stroke-linecap="round"/>
    <circle cx="80" cy="250" r="3" fill="#888"/>
    <path d="M120 250 Q125 245 125 250 Q125 255 120 250" fill="none"/>
    
    <path d="M160 260 L200 260" stroke-linecap="round"/>
    <circle cx="160" cy="260" r="3" fill="#888"/>
    <path d="M200 260 Q205 255 205 260 Q205 265 200 260" fill="none"/>
  </g>
  
  <!-- Skull ring -->
  <circle cx="320" cy="150" r="15" fill="#333" stroke="#666" stroke-width="1"/>
  <circle cx="315" cy="145" r="2" fill="#fff"/>
  <circle cx="325" cy="145" r="2" fill="#fff"/>
  <path d="M315 155 Q320 158 325 155" stroke="#fff" stroke-width="1" fill="none"/>
</svg>